<svg xmlns="http://www.w3.org/2000/svg" viewBox="0 0 3000 3000"><style>.st3{fill:#fff}</style><g id="Projekt_Logo_Autodetaling_-_Fresh_Garage"><path class="st3" d="M714.7 1346.1h77.4c6.8 0 12.6 2.7 17.4 8 4.8 5.3 7.2 11.8 7.2 19.5v115h-23.4v-47.9h-79.9v47.9h-23.2v-115c0-7.7 2.4-14.2 7.1-19.5s10.7-8 17.4-8zm-1.2 68.5h79.9v-41c0-.9-.4-1.4-1.2-1.4h-77.4c-.8 0-1.2.5-1.2 1.4v41zm226 46.5v-115h23.4v115c0 7.7-2.4 14.2-7.2 19.5-4.8 5.3-10.5 8-17.2 8h-77.6c-6.8 0-12.6-2.7-17.3-8-4.7-5.3-7.1-11.8-7.1-19.5v-115h23.2v115c0 .9.4 1.4 1.2 1.4h77.6c.7 0 1-.4 1-1.4zm36.4-115h126.4v26.1h-51.5v116.4h-23.4v-116.4h-51.6v-26.1zm163.7 0h77.6c6.7 0 12.4 2.7 17.2 8 4.8 5.3 7.2 11.8 7.2 19.5v87.5c0 7.7-2.4 14.2-7.2 19.5-4.8 5.3-10.5 8-17.2 8h-77.6c-6.8 0-12.6-2.7-17.3-8-4.7-5.3-7.1-11.8-7.1-19.5v-87.5c0-7.7 2.4-14.2 7.1-19.5s10.5-8 17.3-8zm0 116.4h77.6c.7 0 1.1-.5 1.1-1.4v-87.5c0-.9-.4-1.4-1.1-1.4h-77.6c-.8 0-1.2.5-1.2 1.4v87.5c-.1 1 .3 1.4 1.2 1.4z"/><path d="M1261.3 1346.1h101.9c6.8 0 12.6 2.7 17.4 8 4.8 5.3 7.2 11.8 7.2 19.5v87.5c0 7.7-2.4 14.2-7.2 19.5-4.8 5.3-10.6 8-17.4 8h-101.9v-142.5zm103 115v-87.5c0-.9-.4-1.4-1.2-1.4h-77.4c-.8 0-1.2.5-1.2 1.4v87.5c0 .9.4 1.4 1.2 1.4h77.4c.8 0 1.2-.4 1.2-1.4zm159.7-115v26.1h-92.9v32.1h74.8v26.1h-74.8v32.1h92.9v26.1h-116.3V1346H1524zm11.6 0H1662v26.1h-51.5v116.4h-23.4v-116.4h-51.6v-26.1zm164.3 0h77.4c6.8 0 12.6 2.7 17.4 8 4.8 5.3 7.2 11.8 7.2 19.5v115h-23.4v-47.9h-79.9v47.9h-23.2v-115c0-7.7 2.4-14.2 7.1-19.5 4.9-5.3 10.6-8 17.4-8zm-1.2 68.5h79.9v-41c0-.9-.4-1.4-1.2-1.4H1700c-.8 0-1.2.5-1.2 1.4v41zm123.5 74.1v-142.6h23.2v142.6h-23.2zm38.6 0v-142.8h23.2v116.6h103.3v26.1h-126.5zm138.6 0v-142.6h23.2v142.6h-23.2zm141.5-38.1v-104.5h23.4v142.6H2139l-78-104.5v104.5h-23.2v-142.6h25.3l77.8 104.5zm169.5-77v11.1H2287v-11.1c0-.9-.4-1.4-1.2-1.4h-77.4c-.8 0-1.2.5-1.2 1.4v87.5c0 .9.4 1.4 1.2 1.4h77.4c.8 0 1.2-.5 1.2-1.4v-26.9h-28.6v-26.1h52v53.1c0 7.7-2.4 14.2-7.2 19.5-4.8 5.3-10.6 8-17.4 8h-77.4c-6.8 0-12.6-2.7-17.3-8-4.7-5.3-7.1-11.8-7.1-19.5v-87.5c0-7.7 2.4-14.2 7.1-19.5 4.7-5.3 10.5-8 17.3-8h77.4c6.8 0 12.6 2.7 17.4 8 4.8 5.3 7.2 11.8 7.2 19.4zm-1300.3 190.9h70.9v9.9h-62.2v29h50v10h-50v38.8h-8.7v-87.7zm156 14.7v25.7c0 4.1-1.3 7.5-3.8 10.3-2.5 2.8-5.6 4.3-9.2 4.3h-11.9l24.4 32.6H1154l-24.3-32.6h-28.5c-.6 0-2.1-.2-4.2-.5v33.1h-8.7v-87.5h64.8c3.6 0 6.7 1.4 9.2 4.3 2.6 2.8 3.8 6.2 3.8 10.3zm-64.7 30.3h51.8c1.2 0 2.1-.4 2.9-1.3.8-.9 1.2-2 1.2-3.3v-25.7c0-1.3-.4-2.4-1.2-3.3-.8-.9-1.8-1.4-2.9-1.4h-51.8c-1.2 0-2.1.5-3 1.4-.8.9-1.2 2.1-1.2 3.3v25.7c0 1.3.4 2.4 1.2 3.3.8.9 1.8 1.3 3 1.3zm147.3-45v9.9h-62.2v29h50v10h-50v29h62.2v9.9h-70.9v-87.7h70.9zm88.8 14.6v3.4h-8.7v-3.4c0-1.3-.4-2.4-1.2-3.3-.8-.9-1.8-1.4-3-1.4h-51.8c-1.2 0-2.1.5-3 1.4-.8.9-1.2 2.1-1.2 3.3v19.6c0 1.3.4 2.4 1.2 3.3.8.9 1.8 1.3 3 1.3h51.8c3.6 0 6.7 1.4 9.2 4.3 2.5 2.8 3.8 6.3 3.8 10.3v19.6c0 4.1-1.3 7.5-3.8 10.3-2.5 2.8-5.6 4.3-9.2 4.3h-51.8c-3.6 0-6.7-1.4-9.2-4.3-2.5-2.8-3.8-6.3-3.8-10.3v-3.4h8.7v3.4c0 1.3.4 2.4 1.2 3.3.8.9 1.8 1.4 3 1.4h51.8c1.2 0 2.1-.5 3-1.4.8-.9 1.2-2 1.2-3.3v-19.6c0-1.3-.4-2.4-1.2-3.3-.8-.9-1.8-1.3-3-1.3h-51.8c-3.6 0-6.7-1.4-9.2-4.3-2.5-2.8-3.8-6.3-3.8-10.3v-19.6c0-4.1 1.3-7.5 3.8-10.3 2.5-2.8 5.6-4.3 9.2-4.3h51.8c3.6 0 6.7 1.4 9.2 4.3 2.5 2.8 3.8 6.2 3.8 10.3zm82.5-14.6h8.9v87.7h-8.9v-38.8h-62.1v38.8h-8.7v-87.7h8.7v38.8h62.1v-38.8z" fill="#00baff"/><path class="st3" d="M1548 1579.1v3.5h-8.7v-3.5c0-1.3-.4-2.4-1.2-3.3-.8-.9-1.8-1.4-3-1.4h-51.8c-1.2 0-2.1.5-3 1.4-.8.9-1.2 2.1-1.2 3.3v58.4c0 1.3.4 2.4 1.2 3.3.8.9 1.8 1.4 3 1.4h51.8c1.2 0 2.1-.5 3-1.4.8-.9 1.2-2 1.2-3.3v-21.7h-19.2v-10h28v31.7c0 4.1-1.3 7.5-3.8 10.3-2.5 2.8-5.6 4.3-9.2 4.3h-51.8c-3.6 0-6.7-1.4-9.2-4.3-2.5-2.8-3.8-6.3-3.8-10.3v-58.4c0-4.1 1.3-7.5 3.8-10.3 2.5-2.8 5.6-4.3 9.2-4.3h51.8c3.6 0 6.7 1.4 9.2 4.3 2.5 2.8 3.7 6.2 3.7 10.3zm25.1-14.6h51.8c3.6 0 6.7 1.4 9.2 4.3 2.5 2.8 3.8 6.3 3.8 10.3v73h-8.7v-32H1569v32h-8.7v-73c0-4.1 1.3-7.5 3.8-10.3 2.3-2.9 5.4-4.3 9-4.3zm-4.2 45.7h60.2V1579c0-1.3-.4-2.4-1.2-3.3-.8-.9-1.8-1.4-3-1.4h-51.8c-1.2 0-2.1.5-3 1.4-.8.9-1.2 2.1-1.2 3.3v31.2zm158.9-31v25.7c0 4.1-1.3 7.5-3.8 10.3-2.5 2.8-5.6 4.3-9.2 4.3H1703l24.4 32.6h-11.6l-24.3-32.6H1663c-.6 0-2.1-.2-4.2-.5v33.1h-8.7v-87.5h64.8c3.6 0 6.7 1.4 9.2 4.3 2.4 2.8 3.7 6.2 3.7 10.3zm-64.8 30.3h51.8c1.2 0 2.1-.4 2.9-1.3.8-.9 1.2-2 1.2-3.3v-25.7c0-1.3-.4-2.4-1.2-3.3-.8-.9-1.8-1.4-2.9-1.4H1663c-1.2 0-2.1.5-3 1.4-.8.9-1.2 2.1-1.2 3.3v25.7c0 1.3.4 2.4 1.2 3.3.9.9 1.9 1.3 3 1.3zm89.4-45h51.8c3.6 0 6.7 1.4 9.2 4.3 2.5 2.8 3.8 6.3 3.8 10.3v73h-8.7v-32h-60.2v32h-8.7v-73c0-4.1 1.3-7.5 3.8-10.3 2.3-2.9 5.4-4.3 9-4.3zm-4.2 45.7h60.2V1579c0-1.3-.4-2.4-1.2-3.3-.8-.9-1.8-1.4-3-1.4h-51.8c-1.2 0-2.1.5-3 1.4-.8.9-1.2 2.1-1.2 3.3v31.2zm159-31.1v3.5h-8.7v-3.5c0-1.3-.4-2.4-1.2-3.3-.8-.9-1.8-1.4-3-1.4h-51.8c-1.2 0-2.1.5-3 1.4-.8.9-1.2 2.1-1.2 3.3v58.4c0 1.3.4 2.4 1.2 3.3.8.9 1.8 1.4 3 1.4h51.8c1.2 0 2.1-.5 3-1.4.8-.9 1.2-2 1.2-3.3v-21.7h-19.2v-10h28v31.7c0 4.1-1.3 7.5-3.8 10.3-2.5 2.8-5.6 4.3-9.2 4.3h-51.8c-3.6 0-6.7-1.4-9.2-4.3-2.5-2.8-3.8-6.3-3.8-10.3v-58.4c0-4.1 1.3-7.5 3.8-10.3 2.5-2.8 5.6-4.3 9.2-4.3h51.8c3.6 0 6.7 1.4 9.2 4.3 2.5 2.8 3.7 6.2 3.7 10.3zm83.1-14.6v9.9h-62.2v29h50v10h-50v29h62.2v9.9h-70.9v-87.7h70.9z"/><g id="Fresh_Icon_Prawo"><path class="st3" d="M989.9 1641.4s-23.3-7.4-55 8.5c-17.7 8.8-59.1 32.7-83.6 18.1 4.3.7 20.2 2.9 53.9-12.9 14.1-7 54.4-31.8 84.7-13.7zm-38.3-16s-13.6-10.4-58.3 6.8c-25.3 9.8-66.2 30.2-85.7-3.3-3.2-6.5-10.8-18.4-3-38.1-2.7 3.4-12.7 16.8-2.9 40.4 1.3 2.8 20.6 41.8 78.8 14.4 4.5-1.9 44.9-23.6 71.1-20.2z"/><path class="st3" d="M958.1 1604.8s-17-13.8-52.6 4c-16.2 7.7-34.1 17.1-54.2 16.8 2 1 19.1 10.8 49.6-4 13.4-6.9 32.2-17.8 57.2-16.8zm-129.6 30.8s-29.6-20.1-6.6-50.2c3.8-5.1 24.2-23.2 50.2-2.8-2.6-4.9-13.1-16.1-28-16-6.1-.1-30.7 2.9-37.3 31.9-.9 5.8-1.4 28.1 21.7 37.1z"/><path class="st3" d="M870.5 1558.9s-29-14.1-51.1.9-25.2 29.3-27 47.2c0 0-14.9-30.1 19.7-54.1 4.4-2.9 15.1-10.1 33.7-8 13.5 1.5 23.9 12 24.7 14z"/></g><g id="Fresh_Icon_Lewo_00000108288738518024522270000013768392579062179205_"><path class="st3" d="M2010.2 1641.4s23.3-7.4 55 8.5c17.7 8.8 59.1 32.7 83.6 18.1-4.3.7-20.2 2.9-53.9-12.9-14.1-7-54.4-31.8-84.7-13.7zm38.3-16s13.6-10.4 58.3 6.8c25.3 9.8 66.2 30.2 85.7-3.3 3.2-6.5 10.8-18.4 3-38.1 2.7 3.4 12.7 16.8 2.9 40.4-1.3 2.8-20.6 41.8-78.8 14.4-4.5-1.9-44.9-23.6-71.1-20.2z"/><path class="st3" d="M2041.9 1604.8s17-13.8 52.6 4c16.2 7.7 34.1 17.1 54.2 16.8-2 1-19.1 10.8-49.6-4-13.3-6.9-32.2-17.8-57.2-16.8zm129.7 30.8s29.6-20.1 6.6-50.2c-3.8-5.1-24.2-23.2-50.2-2.8 2.6-4.9 13.1-16.1 28-16 6.1-.1 30.7 2.9 37.3 31.9.9 5.8 1.4 28.1-21.7 37.1z"/><path class="st3" d="M2129.6 1558.9s29-14.1 51.1.9 25.2 29.3 27 47.2c0 0 14.9-30.1-19.7-54.1-4.4-2.9-15.1-10.1-33.7-8-13.6 1.5-23.9 12-24.7 14z"/></g></g></svg>