<svg xmlns="http://www.w3.org/2000/svg" viewBox="0 0 3000 3000"><style>.st3{fill:#00baff}.st4{fill:#fff}</style><g id="Projekt_Logo_Autodetaling_-_Fresh_Garage"><g id="Lamborghini"><g id="Kolo_Lewo"><path class="st3" d="M995.7 1254.9v13s-3.2-.3-8.7-.2c-20.5.2-72.2 6.1-102.5 56.4-2 3.7-31 48.2-15.2 98.8.7 2.3 10.7 39.1 46.6 63.6-1.5-.7-49.8-23.8-60.3-94.6-.3-2.6-11.8-77.2 73.3-124.5 3.9-2 20-10.8 49.3-12.5 2.7-.2 5.5-.3 8.4-.3h.5c3.1 0 5.9.1 8.6.3z"/><path class="st3" d="M1118.3 1391.8c-10.5 70.9-58.8 93.9-60.3 94.6 36-24.5 46-61.3 46.6-63.6 15.8-50.7-13.2-95.2-15.2-98.8-30.3-50.3-82-56.2-102.5-56.4-5.5-.1-8.7.2-8.7.2v-13c2.7-.2 5.5-.3 8.4-.3h.5c2.9 0 5.7.1 8.4.3 29.3 1.7 45.4 10.4 49.3 12.5 85.4 47.4 73.9 121.9 73.5 124.5z"/></g><g id="Kolo_Prawo"><path class="st3" d="M1963.4 1286.7v11.2s-2.8-.3-7.5-.2c-17.6.2-62.3 5.3-88.4 48.7-1.7 3.2-26.7 41.5-13.1 85.2.6 2 9.2 33.8 40.2 54.9-1.3-.6-43-20.5-52-81.6-.3-2.3-10.2-66.6 63.2-107.4 3.4-1.7 17.2-9.3 42.5-10.7 2.3-.1 4.8-.2 7.3-.2h.4c2.6-.1 5.1 0 7.4.1z"/><path class="st3" d="M2069.1 1404.8c-9.1 61.1-50.7 81-52 81.6 31-21.1 39.6-52.9 40.2-54.9 13.7-43.7-11.4-82.1-13.1-85.2-26.1-43.3-70.7-48.4-88.4-48.7-4.7-.1-7.5.2-7.5.2v-11.2c2.3-.1 4.8-.2 7.3-.2h.4c2.5 0 5 .1 7.3.2 25.3 1.5 39.1 9 42.5 10.7 73.5 41 63.6 105.3 63.3 107.5z"/></g><path class="st4" d="M2320 1461.4c-7.6-7-28.4-22-28.4-22s-1.7-1.2.5-2.5c1.9-1.2 4.2-8.4-5.8-12.7s-25.2-10.1-25.2-10.1-4.5-1.9 3.3-4.5 21.1-8.1 24.7-10c3.6-1.9 7.2-6 6.5-8.3-.7-2-14.7-22.8-44.3-40.1-29.7-17.2-69.2-40.1-126.3-60.6-57.2-20.5-94.8-31.7-134.2-38.3-5.3-.8-29-3.2-52.2-3.4-2.5-1.3-63.1-25.4-135.8-50.8-72.7-25.3-164.6-64.9-307-70.4-132.2-5.6-246.2 7.6-325.3 16.4-79.2 8.8-289 40.3-289 40.3l-10.2-14.5H824l12.4 21.4.5.8-50.8 7.1-5-11.4s-18.7 3.7-48.2-1.9c0 2.4.8 18.4.8 18.4s-11.7 1.1-15.8 1.8c-4.1.7-7.7 4.7-4.8 10.9 2.9 6.2 17.9 35.3 16 59.8-.2.9-48.4 40-48.4 40s-11.6 7 5.1 27.5c0 0 9.8 13.4 16.8 21.5 1.2 1.3 3.6 3.3-.4 11.2-1.1 2.7-5 9.8 5.6 23.1 3.4 4 19.4 25.3 76.7 47.2-4.3-2.4-32.3-16.1-49.9-31.2-5.5-4.2-16.4-12.5-22.6-23.2-2-3.7-5.3-6.8-1-16.9 1.2-2.5 4.7-8.5-5.2-20.5-9.8-12-17.9-24.4-18.7-26.6-.8-2.2-3-9.1 5.5-2.5 7.1 4.6 18.8 13.3 87.9 37.1-4-3-6.8-4.9-6.8-4.9s-36.8-24.4-39.9-59.3c-.8-10.6-.8-12.9-.8-12.9v-.4s5.7-3.2 5.7-9.1c0-7.8.1-25.2-7.1-41.9-.7-1.3-2.3-4.2 4.9-.8 7.1 3.3 75.7 28.6 77.8 29.4l-80.5-39.7 159.1 41s41.2-24.5 92.7-22.8c10.2.3 71.3 1.1 125.9 53.1 4.5-1.3 82.1-24.6 82.1-24.6s41.3 65.5 91.3 123.7c15.7 8 36.7 17.7 36.7 17.7s516.2 29 520.5 27.5l-506.3-42-21.8-15.5c-25.2-36.9-47.8-74.1-67.2-111.6l15.8-16.4c22.4-4.4 46.2-7.4 71.1-9.3 0 0-200.5-30.4-201.4-32 10.1 1 163 20 163 20l249.1 35.9 184.2 28.1 119.3 20.1s38.5-44 102.5-41.7c6.8.5 53.6-.4 99.1 38.2 5.9 5.4 21.9 19.2 29.2 33 5.2 11.1 29.8 67.2 33.8 81.2-1.1-6.6-14.2-60.8-21.3-79.8 5.6.9 120.9 21.2 120.9 21.2s62.3 12.3 74.5 21.2c.4.4 3.3 2.6-4.3 4.5-2.8 0-18.7-2.2-35.3-1.6-2.3.1-10.1-3.1-38.1 38.7 1.1 1.6 5.3 9.6 29.9 27.2 3.4 2.5 7.5 5.5 15.5 3.6 8.2-3.3 17.8-7.3 29.2-19.3 0 0 27.1 18.3 30.3 22.5.5.6 2.2 1.9-4.1 3.8-3.9 1.3-12.7 7.9-85.5 9.6-14.5 0-61.3 1.8-84.5 2.9 8.2.7 34.9 3.5 79.6 3.8 39.8 0 64.2 1.2 86.2-6.1 8.3-3.1 14.6-6.8 14.6-6.8s7.4-4.5-.1-11.5zm-1126.1-267.2s112.9-29.3 208.2-37.1c.7 6.2 7.4 67.7 7.4 67.7l-215.6-30.6zm624.8 76.1c-36.2 7.3-63.8 3.8-63.8 3.8 16.2-19 34-36.2 36.2-37.6 2.2-1.4 1.3-1.5 1-2-9.2-9.1-14.6-11-20.2-13.6-24.2-10.2-39.1-8.6-46.2-8.4-7.2.2-6.3 2.8-6.2 4 .5 9.5 2.9 18.3 4.1 23.9 1.2 5.6 18.4 13.1 19.3 13.9-3.2 2-16.8 17.4-16.8 17.4-77-9-310.4-45.7-310.4-45.7l-10.6-69.3c178.3-8.3 294.7 30.6 311.6 35.5 96.7 28.9 161.9 65 161.9 65s-23.7 5.8-59.9 13.1zm62.2-13.9s-30-16.4-78.7-36.3c-12.1-4.8-60-24.3-120.8-39.7-16.8-4.2-50.7-12.8-101.7-19-51-6.2-67.7-7-102.9-7.9-35.2-.9-53.3 0-73.7.9-20.3.9-45.8 3.8-70.3 7.7-24.6 3.9-113.1 22.5-138.6 28.7-24.5 6-43.4 12.2-44.8 12.6 3.1-1.7 102.1-55.1 235.6-62.3 4.3-.2 65.8-1.8 108 1s87.7 2.7 180.7 27.7c23.7 6.7 87.5 26.5 120.7 41 40 16.3 88.1 38.1 97 43.4.6.5-10.5 2.2-10.5 2.2zm337.3 97.5c-3.4-3.2-18.8-15.7-45.1-29.1-23.5-12.1-50.2-24.4-55.3-27.7 0 0 20.8.7 73.2 25.2 5.8 2.7 38.8 17.7 48.4 33.6l.2.5s-5.2-1.1-21.4-2.5zm65.8 80.3c-1.4 1-3.6 2.3-4.4 3.2-.5.6-.4 1.8-.2 2.2.1.4.4.9 1.1 1.3-.4.7-18.1 18.1-31.7 17.7-.6 0-5.5-.7-17-10.8-7-6.7-8-7.5-6.7-7.6 0 0 52.9-1.4 52.2-1.8 0 0-53-2.8-55.6-3.4-8.7-2.1-5.8-4.8-5.8-4.8s8.5-11.2 17.8-22.1c9.9-11.1 14.7-10 14.7-10h21.6c4.8 0-14 6.6-17.2 9.9-6.1 7 1.7 11.9 7.1 14.6 5.4 2.7 23.4 9.3 23.4 9.3s2.5 1.1.7 2.3z"/><path class="st4" d="M724.5 1177.5s34.5 8 69.6 4.9c1-.2 7.2 2.7-28.6-38.6-7-1.1-27.3-6.8-55.5-5.4-1.4 1.2 2.8 25.7 14.5 39.1zm48-37.1l12.8 18.8s18.1-.1 27.3.9c0-1-6.7-19 21.7-9.3 9.4 3 22 6.9 32.5 12.7-6-4.5-26.2-19.2-26.2-19.2s-6.5-3.8-27.8-3.8-40.3-.1-40.3-.1z"/><circle class="st4" cx="2189.2" cy="1327.4" r="1.9"/><circle class="st4" cx="2188.4" cy="1329" r="1.9"/><circle class="st4" cx="2196.3" cy="1332.1" r="1.9"/><circle class="st4" cx="2195.5" cy="1334.3" r="1.9"/><circle class="st4" cx="2202.8" cy="1338.1" r="1.9"/></g><g id="Tarcza"><path class="st3" d="M1173 1933h96s175.8 166.7 231 166.7v78.2s-180.3-59.6-327-244.9zm-189.1-852.2H908l-6.6-138.2s231.5-120.4 598.5-120.4v86.7s-347.2-.7-519 98.2c.8 21.7 3 73.7 3 73.7z"/><path class="st4" d="M1827 1933h-96s-175.8 166.7-231 166.7v78.2s180.3-59.6 327-244.9zm189.1-852.2h75.9l6.6-138.2s-231.5-120.4-598.5-120.4v86.7s347.2-.7 519 98.2c-.8 21.7-3 73.7-3 73.7z"/></g><path class="st4" d="M714.7 1532.3h77.4c6.8 0 12.6 2.7 17.4 8 4.8 5.3 7.2 11.8 7.2 19.5v115h-23.4v-47.9h-79.9v47.9h-23.2v-115c0-7.7 2.4-14.2 7.1-19.5s10.7-8 17.4-8zm-1.2 68.5h79.9v-41c0-.9-.4-1.4-1.2-1.4h-77.4c-.8 0-1.2.5-1.2 1.4v41zm226 46.5v-115h23.4v115c0 7.7-2.4 14.2-7.2 19.5-4.8 5.3-10.5 8-17.2 8h-77.6c-6.8 0-12.6-2.7-17.3-8-4.7-5.3-7.1-11.8-7.1-19.5v-115h23.2v115c0 .9.4 1.4 1.2 1.4h77.6c.7 0 1-.4 1-1.4zm36.4-115h126.4v26.1h-51.5v116.4h-23.4v-116.4h-51.6v-26.1zm163.7 0h77.6c6.7 0 12.4 2.7 17.2 8 4.8 5.3 7.2 11.8 7.2 19.5v87.5c0 7.7-2.4 14.2-7.2 19.5-4.8 5.3-10.5 8-17.2 8h-77.6c-6.8 0-12.6-2.7-17.3-8-4.7-5.3-7.1-11.8-7.1-19.5v-87.5c0-7.7 2.4-14.2 7.1-19.5s10.5-8 17.3-8zm0 116.4h77.6c.7 0 1.1-.5 1.1-1.4v-87.5c0-.9-.4-1.4-1.1-1.4h-77.6c-.8 0-1.2.5-1.2 1.4v87.5c-.1 1 .3 1.4 1.2 1.4z"/><path class="st3" d="M1261.3 1532.3h101.9c6.8 0 12.6 2.7 17.4 8 4.8 5.3 7.2 11.8 7.2 19.5v87.5c0 7.7-2.4 14.2-7.2 19.5-4.8 5.3-10.6 8-17.4 8h-101.9v-142.5zm103 115v-87.5c0-.9-.4-1.4-1.2-1.4h-77.4c-.8 0-1.2.5-1.2 1.4v87.5c0 .9.4 1.4 1.2 1.4h77.4c.8 0 1.2-.4 1.2-1.4zm159.7-115v26.1h-92.9v32.1h74.8v26.1h-74.8v32.1h92.9v26.1h-116.3v-142.6H1524zm11.6 0H1662v26.1h-51.5v116.4h-23.4v-116.4h-51.6v-26.1zm164.3 0h77.4c6.8 0 12.6 2.7 17.4 8 4.8 5.3 7.2 11.8 7.2 19.5v115h-23.4v-47.9h-79.9v47.9h-23.2v-115c0-7.7 2.4-14.2 7.1-19.5 4.9-5.3 10.6-8 17.4-8zm-1.2 68.5h79.9v-41c0-.9-.4-1.4-1.2-1.4H1700c-.8 0-1.2.5-1.2 1.4v41zm123.5 74.1v-142.6h23.2v142.6h-23.2zm38.6 0v-142.8h23.2v116.6h103.3v26.1h-126.5zm138.6 0v-142.6h23.2v142.6h-23.2zm141.5-38.1v-104.5h23.4v142.6H2139l-78-104.5v104.5h-23.2v-142.6h25.3l77.8 104.5zm169.5-77v11.1H2287v-11.1c0-.9-.4-1.4-1.2-1.4h-77.4c-.8 0-1.2.5-1.2 1.4v87.5c0 .9.4 1.4 1.2 1.4h77.4c.8 0 1.2-.5 1.2-1.4v-26.9h-28.6v-26.1h52v53.1c0 7.7-2.4 14.2-7.2 19.5-4.8 5.3-10.6 8-17.4 8h-77.4c-6.8 0-12.6-2.7-17.3-8-4.7-5.3-7.1-11.8-7.1-19.5v-87.5c0-7.7 2.4-14.2 7.1-19.5 4.7-5.3 10.5-8 17.3-8h77.4c6.8 0 12.6 2.7 17.4 8 4.8 5.3 7.2 11.8 7.2 19.4zm-1300.3 190.9h70.9v9.9h-62.2v29h50v10h-50v38.8h-8.7v-87.7zm156 14.7v25.7c0 4.1-1.3 7.5-3.8 10.3-2.5 2.8-5.6 4.3-9.2 4.3h-11.9l24.4 32.6H1154l-24.3-32.6h-28.5c-.6 0-2.1-.2-4.2-.5v33.1h-8.7v-87.5h64.8c3.6 0 6.7 1.4 9.2 4.3 2.6 2.8 3.8 6.2 3.8 10.3zm-64.7 30.3h51.8c1.2 0 2.1-.4 2.9-1.3.8-.9 1.2-2 1.2-3.3v-25.7c0-1.3-.4-2.4-1.2-3.3-.8-.9-1.8-1.4-2.9-1.4h-51.8c-1.2 0-2.1.5-3 1.4-.8.9-1.2 2.1-1.2 3.3v25.7c0 1.3.4 2.4 1.2 3.3.8.9 1.8 1.3 3 1.3zm147.3-45v9.9h-62.2v29h50v10h-50v29h62.2v9.9h-70.9v-87.7h70.9zm88.8 14.6v3.4h-8.7v-3.4c0-1.3-.4-2.4-1.2-3.3-.8-.9-1.8-1.4-3-1.4h-51.8c-1.2 0-2.1.5-3 1.4-.8.9-1.2 2.1-1.2 3.3v19.6c0 1.3.4 2.4 1.2 3.3.8.9 1.8 1.3 3 1.3h51.8c3.6 0 6.7 1.4 9.2 4.3 2.5 2.8 3.8 6.3 3.8 10.3v19.6c0 4.1-1.3 7.5-3.8 10.3-2.5 2.8-5.6 4.3-9.2 4.3h-51.8c-3.6 0-6.7-1.4-9.2-4.3-2.5-2.8-3.8-6.3-3.8-10.3v-3.4h8.7v3.4c0 1.3.4 2.4 1.2 3.3.8.9 1.8 1.4 3 1.4h51.8c1.2 0 2.1-.5 3-1.4.8-.9 1.2-2 1.2-3.3v-19.6c0-1.3-.4-2.4-1.2-3.3-.8-.9-1.8-1.3-3-1.3h-51.8c-3.6 0-6.7-1.4-9.2-4.3-2.5-2.8-3.8-6.3-3.8-10.3v-19.6c0-4.1 1.3-7.5 3.8-10.3 2.5-2.8 5.6-4.3 9.2-4.3h51.8c3.6 0 6.7 1.4 9.2 4.3 2.5 2.8 3.8 6.2 3.8 10.3zm82.5-14.6h8.9v87.7h-8.9v-38.8h-62.1v38.8h-8.7v-87.7h8.7v38.8h62.1v-38.8z"/><path class="st4" d="M1548 1765.3v3.5h-8.7v-3.5c0-1.3-.4-2.4-1.2-3.3-.8-.9-1.8-1.4-3-1.4h-51.8c-1.2 0-2.1.5-3 1.4-.8.9-1.2 2.1-1.2 3.3v58.4c0 1.3.4 2.4 1.2 3.3.8.9 1.8 1.4 3 1.4h51.8c1.2 0 2.1-.5 3-1.4.8-.9 1.2-2 1.2-3.3V1802h-19.2v-10h28v31.7c0 4.1-1.3 7.5-3.8 10.3-2.5 2.8-5.6 4.3-9.2 4.3h-51.8c-3.6 0-6.7-1.4-9.2-4.3-2.5-2.8-3.8-6.3-3.8-10.3v-58.4c0-4.1 1.3-7.5 3.8-10.3 2.5-2.8 5.6-4.3 9.2-4.3h51.8c3.6 0 6.7 1.4 9.2 4.3 2.5 2.8 3.7 6.2 3.7 10.3zm25.1-14.6h51.8c3.6 0 6.7 1.4 9.2 4.3 2.5 2.8 3.8 6.3 3.8 10.3v73h-8.7v-32H1569v32h-8.7v-73c0-4.1 1.3-7.5 3.8-10.3 2.3-2.9 5.4-4.3 9-4.3zm-4.2 45.7h60.2v-31.2c0-1.3-.4-2.4-1.2-3.3-.8-.9-1.8-1.4-3-1.4h-51.8c-1.2 0-2.1.5-3 1.4-.8.9-1.2 2.1-1.2 3.3v31.2zm158.9-31v25.7c0 4.1-1.3 7.5-3.8 10.3-2.5 2.8-5.6 4.3-9.2 4.3H1703l24.4 32.6h-11.6l-24.3-32.6H1663c-.6 0-2.1-.2-4.2-.5v33.1h-8.7v-87.5h64.8c3.6 0 6.7 1.4 9.2 4.3 2.4 2.8 3.7 6.2 3.7 10.3zm-64.8 30.3h51.8c1.2 0 2.1-.4 2.9-1.3.8-.9 1.2-2 1.2-3.3v-25.7c0-1.3-.4-2.4-1.2-3.3-.8-.9-1.8-1.4-2.9-1.4H1663c-1.2 0-2.1.5-3 1.4-.8.9-1.2 2.1-1.2 3.3v25.7c0 1.3.4 2.4 1.2 3.3.9.9 1.9 1.3 3 1.3zm89.4-45h51.8c3.6 0 6.7 1.4 9.2 4.3 2.5 2.8 3.8 6.3 3.8 10.3v73h-8.7v-32h-60.2v32h-8.7v-73c0-4.1 1.3-7.5 3.8-10.3 2.3-2.9 5.4-4.3 9-4.3zm-4.2 45.7h60.2v-31.2c0-1.3-.4-2.4-1.2-3.3-.8-.9-1.8-1.4-3-1.4h-51.8c-1.2 0-2.1.5-3 1.4-.8.9-1.2 2.1-1.2 3.3v31.2zm159-31.1v3.5h-8.7v-3.5c0-1.3-.4-2.4-1.2-3.3-.8-.9-1.8-1.4-3-1.4h-51.8c-1.2 0-2.1.5-3 1.4-.8.9-1.2 2.1-1.2 3.3v58.4c0 1.3.4 2.4 1.2 3.3.8.9 1.8 1.4 3 1.4h51.8c1.2 0 2.1-.5 3-1.4.8-.9 1.2-2 1.2-3.3V1802h-19.2v-10h28v31.7c0 4.1-1.3 7.5-3.8 10.3-2.5 2.8-5.6 4.3-9.2 4.3h-51.8c-3.6 0-6.7-1.4-9.2-4.3-2.5-2.8-3.8-6.3-3.8-10.3v-58.4c0-4.1 1.3-7.5 3.8-10.3 2.5-2.8 5.6-4.3 9.2-4.3h51.8c3.6 0 6.7 1.4 9.2 4.3 2.5 2.8 3.7 6.2 3.7 10.3zm83.1-14.6v9.9h-62.2v29h50v10h-50v29h62.2v9.9h-70.9v-87.7h70.9z"/><g id="Fresh_Icon_Prawo"><path class="st4" d="M989.9 1827.6s-23.3-7.4-55 8.5c-17.7 8.8-59.1 32.7-83.6 18.1 4.3.7 20.2 2.9 53.9-12.9 14.1-7 54.4-31.8 84.7-13.7zm-38.3-16s-13.6-10.4-58.3 6.8c-25.3 9.8-66.2 30.2-85.7-3.3-3.2-6.5-10.8-18.4-3-38.1-2.7 3.4-12.7 16.8-2.9 40.4 1.3 2.8 20.6 41.8 78.8 14.4 4.5-1.9 44.9-23.6 71.1-20.2z"/><path class="st4" d="M958.1 1791s-17-13.8-52.6 4c-16.2 7.7-34.1 17.1-54.2 16.8 2 1 19.1 10.8 49.6-4 13.4-6.9 32.2-17.8 57.2-16.8zm-129.6 30.8s-29.6-20.1-6.6-50.2c3.8-5.1 24.2-23.2 50.2-2.8-2.6-4.9-13.1-16.1-28-16-6.1-.1-30.7 2.9-37.3 31.9-.9 5.8-1.4 28.1 21.7 37.1z"/><path class="st4" d="M870.5 1745s-29-14.1-51.1.9-25.2 29.3-27 47.2c0 0-14.9-30.1 19.7-54.1 4.4-2.9 15.1-10.1 33.7-8 13.5 1.6 23.9 12.1 24.7 14z"/></g><g id="Fresh_Icon_Lewo_00000108288738518024522270000013768392579062179205_"><path class="st4" d="M2010.2 1827.6s23.3-7.4 55 8.5c17.7 8.8 59.1 32.7 83.6 18.1-4.3.7-20.2 2.9-53.9-12.9-14.1-7-54.4-31.8-84.7-13.7zm38.3-16s13.6-10.4 58.3 6.8c25.3 9.8 66.2 30.2 85.7-3.3 3.2-6.5 10.8-18.4 3-38.1 2.7 3.4 12.7 16.8 2.9 40.4-1.3 2.8-20.6 41.8-78.8 14.4-4.5-1.9-44.9-23.6-71.1-20.2z"/><path class="st4" d="M2041.9 1791s17-13.8 52.6 4c16.2 7.7 34.1 17.1 54.2 16.8-2 1-19.1 10.8-49.6-4-13.3-6.9-32.2-17.8-57.2-16.8zm129.7 30.8s29.6-20.1 6.6-50.2c-3.8-5.1-24.2-23.2-50.2-2.8 2.6-4.9 13.1-16.1 28-16 6.1-.1 30.7 2.9 37.3 31.9.9 5.8 1.4 28.1-21.7 37.1z"/><path class="st4" d="M2129.6 1745s29-14.1 51.1.9 25.2 29.3 27 47.2c0 0 14.9-30.1-19.7-54.1-4.4-2.9-15.1-10.1-33.7-8-13.6 1.6-23.9 12.1-24.7 14z"/></g></g></svg>