<svg width="24" height="27" fill="none" xmlns="http://www.w3.org/2000/svg"><path d="M12 14.198a2.32 2.32 0 01-.781-.13 1.805 1.805 0 01-.677-.443L.959 4.042c-.382-.382-.582-.86-.6-1.434a1.927 1.927 0 01.6-1.483C1.34.743 1.827.552 2.417.552s1.076.191 1.458.573L12 9.198l8.125-8.073c.382-.382.86-.581 1.433-.598a1.94 1.94 0 011.484.598c.382.382.573.868.573 1.458s-.191 1.077-.573 1.459l-9.584 9.583a1.84 1.84 0 01-.677.444c-.243.087-.503.13-.78.129zm0 12.5c-.278 0-.538-.043-.781-.13a1.806 1.806 0 01-.677-.443L.959 16.542c-.382-.382-.582-.86-.6-1.432-.019-.572.181-1.067.6-1.485.381-.382.868-.573 1.458-.573s1.076.191 1.458.573L12 21.698l8.125-8.073c.382-.382.86-.582 1.433-.6a1.927 1.927 0 011.484.6c.382.382.573.868.573 1.458s-.191 1.077-.573 1.459l-9.584 9.583a1.84 1.84 0 01-.677.444c-.243.087-.503.13-.78.129z" fill="#fff"/></svg>